<svg width="26" height="26" viewBox="0 0 26 26" fill="none" xmlns="http://www.w3.org/2000/svg">
<path d="M14.75 10.0285H15.5C15.5 10.0138 15.4996 9.99902 15.4987 9.98429L14.75 10.0285ZM15.2847 9.10497L14.9503 8.43365L14.9503 8.43365L15.2847 9.10497ZM16.344 9.23452L16.8446 8.67601C16.8399 8.6718 16.8351 8.66766 16.8303 8.66357L16.344 9.23452ZM19.65 12.1975L20.1569 11.6447L20.1506 11.639L19.65 12.1975ZM19.65 13.7865L20.1507 14.345L20.1569 14.3393L19.65 13.7865ZM16.344 16.7505L16.8303 17.3215C16.8352 17.3174 16.8399 17.3132 16.8447 17.3089L16.344 16.7505ZM15.2847 16.8801L15.6191 16.2087L15.6191 16.2087L15.2847 16.8801ZM14.75 15.9565L15.4987 16.0008C15.4996 15.986 15.5 15.9713 15.5 15.9565L14.75 15.9565ZM14.75 13.7425C15.1642 13.7425 15.5 13.4067 15.5 12.9925C15.5 12.5783 15.1642 12.2425 14.75 12.2425V13.7425ZM6 12.2425C5.58579 12.2425 5.25 12.5783 5.25 12.9925C5.25 13.4067 5.58579 13.7425 6 13.7425V12.2425ZM15.5 12.9925V10.0285H14V12.9925H15.5ZM15.4987 9.98429C15.4935 9.89709 15.5409 9.81524 15.6191 9.7763L14.9503 8.43365C14.3342 8.74056 13.9607 9.3856 14.0013 10.0728L15.4987 9.98429ZM15.6191 9.7763C15.6973 9.73735 15.7912 9.74884 15.8577 9.80547L16.8303 8.66357C16.3063 8.21722 15.5665 8.12674 14.9503 8.43365L15.6191 9.7763ZM15.8434 9.79303L19.1494 12.756L20.1506 11.639L16.8446 8.67601L15.8434 9.79303ZM19.1431 12.7503C19.2108 12.8124 19.2494 12.9001 19.2494 12.992H20.7494C20.7494 12.4798 20.5345 11.991 20.1569 11.6448L19.1431 12.7503ZM19.2494 12.992C19.2494 13.0839 19.2108 13.1716 19.1431 13.2338L20.1569 14.3393C20.5345 13.9931 20.7494 13.5043 20.7494 12.992H19.2494ZM19.1493 13.2281L15.8433 16.1921L16.8447 17.3089L20.1507 14.3449L19.1493 13.2281ZM15.8577 16.1796C15.7912 16.2362 15.6973 16.2477 15.6191 16.2087L14.9503 17.5514C15.5665 17.8583 16.3063 17.7678 16.8303 17.3215L15.8577 16.1796ZM15.6191 16.2087C15.5409 16.1698 15.4935 16.0879 15.4987 16.0008L14.0013 15.9123C13.9607 16.5994 14.3342 17.2445 14.9503 17.5514L15.6191 16.2087ZM15.5 15.9565V12.9925H14V15.9565H15.5ZM14.75 12.2425H6V13.7425H14.75V12.2425Z" fill="#353949"/>
<rect x="1" y="1.00342" width="24" height="24" stroke="black" stroke-miterlimit="0" stroke-linejoin="bevel"/>
</svg>
