<svg width="48" height="49" viewBox="0 0 48 49" fill="none" xmlns="http://www.w3.org/2000/svg">
<g clip-path="url(#clip0_9494_27688)">
<path d="M34 41.1436C32.344 39.1436 30.172 38.1436 28 38.1436C30.172 38.1436 32.344 37.1436 34 35.1436" stroke="#0093A2" stroke-width="2" stroke-linecap="round" stroke-linejoin="round"/>
<path d="M20 31.8702V44.0022H28V31.8682" stroke="#0093A2" stroke-width="2" stroke-linecap="round" stroke-linejoin="round"/>
<path d="M28 38.1416H20" stroke="#0093A2" stroke-width="2" stroke-linecap="round" stroke-linejoin="round"/>
<path d="M38.8823 20.9156C39.2383 20.6856 39.5803 20.4236 39.8923 20.1116L44.0003 16.0016C42.3083 14.3096 40.0423 13.5376 37.8283 13.6896C37.9783 11.4756 37.2083 9.20958 35.5163 7.51758L31.4083 11.6256C29.4503 13.5816 29.1503 16.5416 30.4603 18.8336" stroke="#0093A2" stroke-width="2" stroke-linecap="round" stroke-linejoin="round"/>
<path fill-rule="evenodd" clip-rule="evenodd" d="M39.1825 24.6738L29.1985 31.3298C28.5405 31.7678 27.7685 32.0018 26.9785 32.0018H21.0185C20.2285 32.0018 19.4565 31.7678 18.8005 31.3298L8.81653 24.6738C7.82453 24.0118 7.64453 22.6478 8.38853 21.7138C9.97053 19.7238 12.4105 18.4418 15.1545 18.4418C15.9925 18.4418 16.8105 18.6098 17.5865 18.8398C19.1785 17.0998 21.4645 16.0098 23.9985 16.0098C26.5325 16.0098 28.8185 17.0998 30.4325 18.8398C31.2085 18.6098 32.0045 18.4418 32.8645 18.4418C35.5905 18.4418 38.0285 19.7238 39.6125 21.7138C40.3525 22.6478 40.1745 24.0118 39.1825 24.6738V24.6738Z" stroke="#0093A2" stroke-width="2" stroke-linecap="round" stroke-linejoin="round"/>
<path d="M27.5993 16.7984C29.0653 15.7044 30.0273 13.9724 30.0273 12.0024V6.19238C27.6333 6.19238 25.4873 7.24838 24.0273 8.92238C22.5673 7.25038 20.4213 6.19238 18.0273 6.19238V12.0024C18.0273 13.9604 18.9793 15.6824 20.4313 16.7784" stroke="#0093A2" stroke-width="2" stroke-linecap="round" stroke-linejoin="round"/>
<path d="M9.118 20.9156C8.762 20.6856 8.42 20.4236 8.108 20.1116L4 16.0016C5.692 14.3096 7.958 13.5376 10.172 13.6896C10.022 11.4756 10.792 9.20958 12.484 7.51758L16.592 11.6256C18.55 13.5816 18.85 16.5416 17.54 18.8336" stroke="#0093A2" stroke-width="2" stroke-linecap="round" stroke-linejoin="round"/>
</g>
<defs>
<clipPath id="clip0_9494_27688">
<rect width="48" height="48" fill="white" transform="translate(0 0.00195312)"/>
</clipPath>
</defs>
</svg>
