<svg width="48" height="49" viewBox="0 0 48 49" fill="none" xmlns="http://www.w3.org/2000/svg">
<g clip-path="url(#clip0_9494_27069)">
<path d="M17.1429 11.2873C17.6952 11.2873 18.1429 10.8395 18.1429 10.2873C18.1429 9.73498 17.6952 9.28726 17.1429 9.28726V11.2873ZM30.8572 9.28726C30.3049 9.28726 29.8572 9.73498 29.8572 10.2873C29.8572 10.8395 30.3049 11.2873 30.8572 11.2873V9.28726ZM17.1429 9.28726C16.5906 9.28726 16.1429 9.73498 16.1429 10.2873C16.1429 10.8395 16.5906 11.2873 17.1429 11.2873V9.28726ZM30.8572 11.2873C31.4094 11.2873 31.8572 10.8395 31.8572 10.2873C31.8572 9.73498 31.4094 9.28726 30.8572 9.28726V11.2873ZM18.1429 10.2873C18.1429 9.73498 17.6952 9.28726 17.1429 9.28726C16.5906 9.28726 16.1429 9.73498 16.1429 10.2873H18.1429ZM16.1429 12.573C16.1429 13.1253 16.5906 13.573 17.1429 13.573C17.6952 13.573 18.1429 13.1253 18.1429 12.573H16.1429ZM16.1429 10.2873C16.1429 10.8395 16.5906 11.2873 17.1429 11.2873C17.6952 11.2873 18.1429 10.8395 18.1429 10.2873H16.1429ZM18.1429 5.71583C18.1429 5.16355 17.6952 4.71583 17.1429 4.71583C16.5906 4.71583 16.1429 5.16355 16.1429 5.71583H18.1429ZM31.8572 10.2873C31.8572 9.73498 31.4094 9.28726 30.8572 9.28726C30.3049 9.28726 29.8572 9.73498 29.8572 10.2873H31.8572ZM29.8572 12.573C29.8572 13.1253 30.3049 13.573 30.8572 13.573C31.4094 13.573 31.8572 13.1253 31.8572 12.573H29.8572ZM29.8572 10.2873C29.8572 10.8395 30.3049 11.2873 30.8572 11.2873C31.4094 11.2873 31.8572 10.8395 31.8572 10.2873H29.8572ZM31.8572 5.71583C31.8572 5.16355 31.4094 4.71583 30.8572 4.71583C30.3049 4.71583 29.8572 5.16355 29.8572 5.71583H31.8572ZM17.1429 9.28726C11.5411 9.28726 7.00002 13.8284 7.00002 19.4301H9.00002C9.00002 14.9329 12.6457 11.2873 17.1429 11.2873V9.28726ZM7.00002 19.4301V33.1444H9.00002V19.4301H7.00002ZM7.00002 33.1444C7.00002 38.7461 11.5411 43.2873 17.1429 43.2873V41.2873C12.6457 41.2873 9.00002 37.6416 9.00002 33.1444H7.00002ZM17.1429 43.2873H30.8572V41.2873H17.1429V43.2873ZM30.8572 43.2873C36.4589 43.2873 41 38.7461 41 33.1444H39C39 37.6416 35.3543 41.2873 30.8572 41.2873V43.2873ZM41 33.1444V19.4301H39V33.1444H41ZM41 19.4301C41 13.8284 36.4589 9.28726 30.8572 9.28726V11.2873C35.3543 11.2873 39 14.9329 39 19.4301H41ZM17.1429 11.2873L30.8572 11.2873V9.28726L17.1429 9.28726V11.2873ZM16.1429 10.2873V12.573H18.1429V10.2873H16.1429ZM18.1429 10.2873V5.71583H16.1429V10.2873H18.1429ZM29.8572 10.2873V12.573H31.8572V10.2873H29.8572ZM31.8572 10.2873V5.71583H29.8572V10.2873H31.8572Z" fill="#0093A2"/>
<path d="M14.8574 26.2872L19.4288 33.1444L33.1431 21.7158" stroke="#0093A2" stroke-width="2" stroke-linecap="round" stroke-linejoin="round"/>
</g>
<defs>
<clipPath id="clip0_9494_27069">
<rect width="48" height="48" fill="white" transform="translate(0 0.00195312)"/>
</clipPath>
</defs>
</svg>
