<svg width="24" height="25" viewBox="0 0 24 25" fill="none" xmlns="http://www.w3.org/2000/svg">
<path fill-rule="evenodd" clip-rule="evenodd" d="M10.4378 6.97681C8.8809 5.38452 6.31891 5.38452 4.76201 6.97681C3.25381 8.51929 3.25381 10.984 4.76201 12.5265L11.8612 19.787C11.9373 19.8648 12.0625 19.8648 12.1386 19.787L19.2378 12.5265C20.746 10.984 20.746 8.51929 19.2378 6.97681C17.6809 5.38452 15.1189 5.38452 13.562 6.97681L12.5362 8.02597C12.3951 8.17029 12.2017 8.25164 11.9999 8.25164C11.7981 8.25164 11.6048 8.17029 11.4636 8.02597L10.4378 6.97681ZM20.3103 5.92813C22.3885 8.05355 22.3885 11.4497 20.3103 13.5751L13.2111 20.8357C12.5466 21.5153 11.4532 21.5153 10.7887 20.8357L3.6895 13.5751C1.61131 11.4497 1.61131 8.05355 3.6895 5.92813C5.8348 3.73408 9.36501 3.73408 11.5103 5.92813L11.9999 6.42886L12.4895 5.92813C14.6348 3.73408 18.165 3.73408 20.3103 5.92813Z" fill="#505567"/>
</svg>
