<svg width="20" height="20" viewBox="0 0 20 20" fill="none" xmlns="http://www.w3.org/2000/svg">
<path d="M2.14991 17.0637C1.40314 14.1881 1.10756 10.6658 1.0256 8.75375C1.00195 8.20197 1.44772 7.75513 2 7.75513H18C18.5523 7.75513 18.998 8.20197 18.9744 8.75375C18.8924 10.6658 18.5969 14.1881 17.8501 17.0637C17.6501 17.8338 17.0868 18.4344 16.3043 18.5787C15.133 18.7948 13.1135 19.0051 10 19.0051C6.88651 19.0051 4.86695 18.7948 3.69568 18.5787C2.91323 18.4344 2.3499 17.8338 2.14991 17.0637Z" stroke="white" stroke-width="1.5" stroke-linecap="round" stroke-linejoin="round"/>
<path d="M4.75 7.75512V6.00513C4.75 3.2437 6.98858 1.00513 9.75 1.00513H10.25C13.0114 1.00513 15.25 3.2437 15.25 6.00513V7.75512" stroke="white" stroke-width="1.5" stroke-linecap="round" stroke-linejoin="round"/>
<path d="M7 12.2551V14.5051M13 12.2551V14.5051" stroke="white" stroke-width="1.5" stroke-linecap="round" stroke-linejoin="round"/>
</svg>
