<svg width="24" height="24" viewBox="0 0 24 24" fill="none" xmlns="http://www.w3.org/2000/svg">
<path d="M12.5794 20.654C14.2569 19.2446 19.0003 14.8227 19.0003 9.87975C19.0003 6.01368 15.8662 2.87961 12.0001 2.87961C8.13407 2.87961 5 6.01368 5 9.87975C5 14.8227 9.74337 19.2446 11.4209 20.654C11.7605 20.9392 12.2398 20.9392 12.5794 20.654Z" stroke="#505567" stroke-width="1.5" stroke-linecap="round" stroke-linejoin="round"/>
<path d="M11.9999 12.3358C13.5834 12.3358 14.8671 11.0522 14.8671 9.46871C14.8671 7.88524 13.5834 6.60158 11.9999 6.60158C10.4165 6.60158 9.13281 7.88524 9.13281 9.46871C9.13281 11.0522 10.4165 12.3358 11.9999 12.3358Z" stroke="#505567" stroke-width="1.5" stroke-linecap="round" stroke-linejoin="round"/>
</svg>
