<svg width="48" height="49" viewBox="0 0 48 49" fill="none" xmlns="http://www.w3.org/2000/svg">
<g clip-path="url(#clip0_9494_27265)">
<path d="M11.273 27.9033L4.5 34.8367L9.91667 38.0867L13.1667 43.5033L21.6145 34.6308" stroke="#0093A2" stroke-width="2" stroke-linecap="round" stroke-linejoin="round"/>
<path d="M26.3848 34.6308L34.8326 43.5033L38.0826 38.0867L43.4993 34.8367L36.7263 27.9033" stroke="#0093A2" stroke-width="2" stroke-linecap="round" stroke-linejoin="round"/>
<path d="M34.7251 8.94417C40.648 14.8671 40.648 24.4701 34.7251 30.3931C28.8021 36.316 19.1992 36.316 13.2762 30.3931C7.35325 24.4701 7.35325 14.8671 13.2762 8.94417C19.1992 3.02122 28.8021 3.02122 34.7251 8.94417" stroke="#0093A2" stroke-width="2" stroke-linecap="round" stroke-linejoin="round"/>
<path fill-rule="evenodd" clip-rule="evenodd" d="M23.9995 25.2661L27.893 27.3115C28.6513 27.7101 29.5375 27.0666 29.3923 26.2216L28.6492 21.8861L31.7995 18.8181C32.4127 18.2201 32.0747 17.178 31.2275 17.0545L26.8747 16.4218L24.929 12.4763C24.5498 11.7071 23.4557 11.7071 23.0765 12.4763L21.1308 16.4218L16.7758 17.0566C15.9287 17.1801 15.5907 18.2223 16.2038 18.8203L19.3542 21.8883L18.611 26.2238C18.4658 27.0688 19.352 27.7123 20.1103 27.3136L24.0038 25.2683H23.9995V25.2661Z" stroke="#0093A2" stroke-width="2" stroke-linecap="round" stroke-linejoin="round"/>
</g>
<defs>
<clipPath id="clip0_9494_27265">
<rect width="48" height="48" fill="white" transform="translate(0 0.00195312)"/>
</clipPath>
</defs>
</svg>
