<svg width="48" height="49" viewBox="0 0 48 49" fill="none" xmlns="http://www.w3.org/2000/svg">
<g clip-path="url(#clip0_9494_27360)">
<path fill-rule="evenodd" clip-rule="evenodd" d="M25.213 6.54387L28.113 5.12587C29.451 4.47187 31.069 4.99587 31.767 6.31387L33.281 9.16587C33.681 9.91787 34.405 10.4439 35.245 10.5919L38.425 11.1499C39.893 11.4079 40.891 12.7819 40.683 14.2579L40.231 17.4539C40.111 18.2979 40.389 19.1499 40.981 19.7619L43.225 22.0819C44.261 23.1519 44.261 24.8519 43.225 25.9239L40.981 28.2439C40.389 28.8559 40.111 29.7079 40.231 30.5519L40.683 33.7479C40.891 35.2239 39.893 36.5979 38.425 36.8559L35.245 37.4139C34.405 37.5619 33.681 38.0879 33.281 38.8399L31.767 41.6919C31.069 43.0079 29.453 43.5339 28.113 42.8799L25.213 41.4619C24.447 41.0879 23.553 41.0879 22.787 41.4619L19.887 42.8799C18.549 43.5339 16.931 43.0099 16.233 41.6919L14.719 38.8379C14.319 38.0859 13.595 37.5599 12.755 37.4119L9.57505 36.8539C8.10705 36.5959 7.10905 35.2219 7.31705 33.7459L7.76905 30.5499C7.88905 29.7059 7.61105 28.8539 7.01905 28.2419L4.77505 25.9219C3.73905 24.8519 3.73905 23.1519 4.77505 22.0799L7.01905 19.7599C7.61105 19.1479 7.88905 18.2959 7.76905 17.4519L7.31905 14.2559C7.10905 12.7819 8.10905 11.4059 9.57705 11.1499L12.757 10.5919C13.595 10.4439 14.319 9.91787 14.719 9.16587L16.233 6.31387C16.931 4.99787 18.547 4.47187 19.887 5.12587L22.787 6.54387C23.551 6.91787 24.447 6.91787 25.213 6.54387Z" stroke="#0093A2" stroke-width="2" stroke-linecap="round" stroke-linejoin="round"/>
<path d="M18 30.002L30 18.002" stroke="#0093A2" stroke-width="2" stroke-linecap="round" stroke-linejoin="round"/>
<path d="M18.498 18.002C18.222 18.002 17.998 18.226 18 18.502C18 18.778 18.224 19.002 18.5 19.002C18.776 19.002 19 18.778 19 18.502C19 18.226 18.776 18.002 18.498 18.002" stroke="#0093A2" stroke-width="2" stroke-linecap="round" stroke-linejoin="round"/>
<path d="M29.498 29.002C29.222 29.002 28.998 29.226 29 29.502C29 29.778 29.224 30.002 29.5 30.002C29.776 30.002 30 29.778 30 29.502C30 29.226 29.776 29.002 29.498 29.002" stroke="#0093A2" stroke-width="2" stroke-linecap="round" stroke-linejoin="round"/>
</g>
<defs>
<clipPath id="clip0_9494_27360">
<rect width="48" height="48" fill="white" transform="translate(0 0.00195312)"/>
</clipPath>
</defs>
</svg>
