<svg width="48" height="49" viewBox="0 0 48 49" fill="none" xmlns="http://www.w3.org/2000/svg">
<g clip-path="url(#clip0_9494_27132)">
<path d="M37.4085 36.5945C38.6465 37.8325 38.6465 39.8385 37.4085 41.0745C36.1705 42.3125 34.1645 42.3125 32.9285 41.0745C31.6905 39.8365 31.6905 37.8305 32.9285 36.5945C34.1665 35.3565 36.1725 35.3565 37.4085 36.5945" stroke="#0093A2" stroke-width="2" stroke-linecap="round" stroke-linejoin="round"/>
<path d="M15.4078 36.5938C16.6458 37.8318 16.6458 39.8378 15.4078 41.0738C14.1698 42.3118 12.1638 42.3118 10.9278 41.0738C9.69175 39.8358 9.68975 37.8298 10.9278 36.5938C12.1658 35.3578 14.1698 35.3558 15.4078 36.5938" stroke="#0093A2" stroke-width="2" stroke-linecap="round" stroke-linejoin="round"/>
<path d="M20 8.00195H28C29.104 8.00195 30 8.89795 30 10.002V30.002H4" stroke="#0093A2" stroke-width="2" stroke-linecap="round" stroke-linejoin="round"/>
<path d="M10 38.834H6C4.896 38.834 4 37.938 4 36.834V26.002" stroke="#0093A2" stroke-width="2" stroke-linecap="round" stroke-linejoin="round"/>
<path d="M30 14.002H38.646C39.464 14.002 40.2 14.5 40.502 15.26L43.714 23.288C43.902 23.76 44 24.264 44 24.772V36.668C44 37.772 43.104 38.668 42 38.668H38.338" stroke="#0093A2" stroke-width="2" stroke-linecap="round" stroke-linejoin="round"/>
<path d="M31.9998 38.8418H16.3398" stroke="#0093A2" stroke-width="2" stroke-linecap="round" stroke-linejoin="round"/>
<path d="M44 28.002H36V20.002H42.4" stroke="#0093A2" stroke-width="2" stroke-linecap="round" stroke-linejoin="round"/>
<path d="M4 8.00195H14" stroke="#0093A2" stroke-width="2" stroke-linecap="round" stroke-linejoin="round"/>
<path d="M4 14.002H10" stroke="#0093A2" stroke-width="2" stroke-linecap="round" stroke-linejoin="round"/>
<path d="M6 20.002H4" stroke="#0093A2" stroke-width="2" stroke-linecap="round" stroke-linejoin="round"/>
</g>
<defs>
<clipPath id="clip0_9494_27132">
<rect width="48" height="48" fill="white" transform="translate(0 0.00195312)"/>
</clipPath>
</defs>
</svg>
